{
    "asset" : {
        "generator" : "Khronos glTF Blender I/O v1.8.19",
        "version" : "2.0"
    },
    "scene" : 0,
    "scenes" : [
        {
            "name" : "Scene",
            "nodes" : [
                25
            ]
        }
    ],
    "nodes" : [
        {
            "name" : "Head",
            "rotation" : [
                0,
                -1.1920927533992653e-07,
                0,
                1
            ],
            "translation" : [
                0,
                2.9651846885681152,
                0
            ]
        },
        {
            "name" : "Hand.L",
            "rotation" : [
                -0.029612651094794273,
                2.270714816177133e-08,
                5.247240153494204e-08,
                0.9995615482330322
            ],
            "translation" : [
                -9.748735010361997e-07,
                1.790239930152893,
                4.928551788907498e-09
            ]
        },
        {
            "children" : [
                1
            ],
            "name" : "Forearm.L",
            "rotation" : [
                0.05897573381662369,
                1.3642215135334368e-09,
                -4.533139641438311e-09,
                0.998259425163269
            ],
            "scale" : [
                0.9999998807907104,
                1.000000238418579,
                1.000000238418579
            ],
            "translation" : [
                9.589844012225512e-07,
                1.8038678169250488,
                -3.241070345438857e-08
            ]
        },
        {
            "children" : [
                2
            ],
            "name" : "Arm.L",
            "rotation" : [
                -0.020780911669135094,
                0.020780880004167557,
                -0.7068014144897461,
                0.7068013548851013
            ],
            "scale" : [
                0.9999999403953552,
                1,
                1
            ],
            "translation" : [
                1.1553341150283813,
                2.4240784645080566,
                1.9574700615976326e-07
            ]
        },
        {
            "name" : "Hand.R",
            "rotation" : [
                -0.02961396612226963,
                1.398336646474263e-08,
                -9.60851593845291e-08,
                0.9995614886283875
            ],
            "translation" : [
                2.1199152655526632e-08,
                1.790239930152893,
                3.970306750034069e-09
            ]
        },
        {
            "children" : [
                4
            ],
            "name" : "Forearm.R",
            "rotation" : [
                0.05897834897041321,
                2.3545856375761787e-09,
                4.313646329023868e-09,
                0.9982593059539795
            ],
            "scale" : [
                0.9999999403953552,
                1,
                0.9999998211860657
            ],
            "translation" : [
                9.488699106441345e-07,
                1.803868055343628,
                4.9758455133996904e-08
            ]
        },
        {
            "children" : [
                5
            ],
            "name" : "Arm.R",
            "rotation" : [
                -0.020781971514225006,
                -0.02078200876712799,
                0.7068013548851013,
                0.7068012952804565
            ],
            "scale" : [
                1,
                1.000000238418579,
                1.000000238418579
            ],
            "translation" : [
                -1.1553339958190918,
                2.424079418182373,
                -3.481554813333787e-07
            ]
        },
        {
            "children" : [
                0,
                3,
                6
            ],
            "name" : "Spine",
            "rotation" : [
                0,
                1.1920926823449918e-07,
                0,
                1
            ],
            "scale" : [
                1,
                0.9999999403953552,
                1
            ],
            "translation" : [
                0,
                1.190415382385254,
                0
            ]
        },
        {
            "name" : "Foot.L",
            "rotation" : [
                -0.627810537815094,
                2.037798765286425e-07,
                -2.8710917376884026e-07,
                0.778366208076477
            ],
            "scale" : [
                1,
                0.9999997615814209,
                0.9999998807907104
            ],
            "translation" : [
                6.160895793527743e-09,
                1.8782285451889038,
                1.529945414802114e-08
            ]
        },
        {
            "children" : [
                8
            ],
            "name" : "Leg.L",
            "rotation" : [
                0.08781139552593231,
                1.1874882943629927e-07,
                1.0467933186930622e-08,
                0.9961371421813965
            ],
            "scale" : [
                1,
                1,
                0.9999998807907104
            ],
            "translation" : [
                5.960463056453591e-08,
                1.809148907661438,
                -9.524853794573573e-09
            ]
        },
        {
            "children" : [
                9
            ],
            "name" : "UpLeg.L",
            "rotation" : [
                0.9994599223136902,
                1.2437388896557877e-09,
                -2.190818726433008e-08,
                0.03286171332001686
            ],
            "scale" : [
                1,
                1.000000238418579,
                1.0000145435333252
            ],
            "translation" : [
                0.7516705989837646,
                -0.08009624481201172,
                0
            ]
        },
        {
            "name" : "Foot.R",
            "rotation" : [
                -0.627810537815094,
                -1.6737313046633062e-07,
                3.1161636115939473e-07,
                0.778366208076477
            ],
            "scale" : [
                1,
                0.9999997615814209,
                0.9999998807907104
            ],
            "translation" : [
                -6.16084516735782e-09,
                1.8782284259796143,
                -9.938385225893853e-09
            ]
        },
        {
            "children" : [
                11
            ],
            "name" : "Leg.R",
            "rotation" : [
                0.08781139552593231,
                -1.1874882943629927e-07,
                -1.0467935851465882e-08,
                0.9961371421813965
            ],
            "scale" : [
                1,
                1,
                0.9999998807907104
            ],
            "translation" : [
                -5.960463056453591e-08,
                1.809148907661438,
                -9.524853794573573e-09
            ]
        },
        {
            "children" : [
                12
            ],
            "name" : "UpLeg.R",
            "rotation" : [
                0.9994599223136902,
                1.2437388896557877e-09,
                -2.190818726433008e-08,
                0.03286171332001686
            ],
            "scale" : [
                1,
                1.000000238418579,
                1.0000145435333252
            ],
            "translation" : [
                -0.7516705989837646,
                -0.08009624481201172,
                0
            ]
        },
        {
            "children" : [
                7,
                10,
                13
            ],
            "name" : "Hip",
            "translation" : [
                0,
                4.3817830085754395,
                0
            ]
        },
        {
            "name" : "HandIK.L",
            "rotation" : [
                -2.6692541510442425e-08,
                -2.6692541510442425e-08,
                -0.7071068286895752,
                0.7071068286895752
            ],
            "translation" : [
                4.743185997009277,
                7.996276378631592,
                -7.270234902989614e-08
            ]
        },
        {
            "name" : "ElbowIK.L",
            "rotation" : [
                -0.5000000596046448,
                0.5,
                -0.5,
                0.5
            ],
            "translation" : [
                2.9560861587524414,
                7.996276378631592,
                -1.620025396347046
            ]
        },
        {
            "name" : "HandIK.R",
            "rotation" : [
                -2.6692541510442425e-08,
                2.6692541510442425e-08,
                0.7071068286895752,
                0.7071068286895752
            ],
            "translation" : [
                -4.743185997009277,
                7.996276378631592,
                -7.270234902989614e-08
            ]
        },
        {
            "name" : "ElbowIK.R",
            "rotation" : [
                -0.5000000596046448,
                -0.5,
                0.5,
                0.5
            ],
            "translation" : [
                -2.9560861587524414,
                7.996276378631592,
                -1.620025396347046
            ]
        },
        {
            "name" : "KneeIK.L",
            "rotation" : [
                0.7071068286895752,
                -2.837897454810445e-07,
                -2.837897454810445e-07,
                0.7071068286895752
            ],
            "translation" : [
                0.7516705989837646,
                2.496445655822754,
                1.5882568359375
            ]
        },
        {
            "name" : "FootIK.L",
            "rotation" : [
                0.8117347359657288,
                2.0886449192403234e-07,
                2.9029953907411254e-07,
                0.5840263366699219
            ],
            "translation" : [
                0.7516705989837646,
                0.6295924186706543,
                -0.0875653624534607
            ]
        },
        {
            "name" : "KneeIK.R",
            "rotation" : [
                0.7071068286895752,
                1.9949604279645428e-07,
                1.9949604279645428e-07,
                0.7071068286895752
            ],
            "translation" : [
                -0.7516705989837646,
                2.496445655822754,
                1.5882568359375
            ]
        },
        {
            "name" : "FootIK.R",
            "rotation" : [
                0.8117347359657288,
                -2.0886449192403234e-07,
                -2.9029953907411254e-07,
                0.5840263366699219
            ],
            "translation" : [
                -0.7516705989837646,
                0.6295924186706543,
                -0.0875653624534607
            ]
        },
        {
            "children" : [
                14,
                15,
                16,
                17,
                18,
                19,
                20,
                21,
                22
            ],
            "name" : "Root",
            "translation" : [
                0,
                0.6182169914245605,
                0
            ]
        },
        {
            "mesh" : 0,
            "name" : "Cube",
            "skin" : 0
        },
        {
            "children" : [
                24,
                23
            ],
            "name" : "Armature",
            "translation" : [
                0,
                -5.29606819152832,
                0
            ]
        }
    ],
    "materials" : [
        {
            "doubleSided" : true,
            "name" : "\u30de\u30c6\u30ea\u30a2\u30eb",
            "pbrMetallicRoughness" : {
                "baseColorTexture" : {
                    "index" : 0
                },
                "metallicFactor" : 0,
                "roughnessFactor" : 0.5
            }
        }
    ],
    "meshes" : [
        {
            "name" : "Cube.009",
            "primitives" : [
                {
                    "attributes" : {
                        "POSITION" : 0,
                        "NORMAL" : 1,
                        "TEXCOORD_0" : 2,
                        "JOINTS_0" : 3,
                        "WEIGHTS_0" : 4
                    },
                    "indices" : 5,
                    "material" : 0
                }
            ]
        }
    ],
    "textures" : [
        {
            "sampler" : 0,
            "source" : 0
        }
    ],
    "images" : [
        {
            "mimeType" : "image/png",
            "name" : "skydome.png",
            "uri" : "../skydome/skydome.png"
        }
    ],
    "skins" : [
        {
            "inverseBindMatrices" : 6,
            "joints" : [
                23,
                14,
                7,
                0,
                3,
                2,
                1,
                6,
                5,
                4,
                10,
                9,
                8,
                13,
                12,
                11,
                15,
                16,
                17,
                18,
                19,
                20,
                21,
                22
            ],
            "name" : "Armature"
        }
    ],
    "accessors" : [
        {
            "bufferView" : 0,
            "componentType" : 5126,
            "count" : 384,
            "max" : [
                5.92465353012085,
                6,
                1.2349536418914795
            ],
            "min" : [
                -5.92465353012085,
                -4.714045524597168,
                -1
            ],
            "type" : "VEC3"
        },
        {
            "bufferView" : 1,
            "componentType" : 5126,
            "count" : 384,
            "type" : "VEC3"
        },
        {
            "bufferView" : 2,
            "componentType" : 5126,
            "count" : 384,
            "type" : "VEC2"
        },
        {
            "bufferView" : 3,
            "componentType" : 5121,
            "count" : 384,
            "type" : "VEC4"
        },
        {
            "bufferView" : 4,
            "componentType" : 5126,
            "count" : 384,
            "type" : "VEC4"
        },
        {
            "bufferView" : 5,
            "componentType" : 5123,
            "count" : 612,
            "type" : "SCALAR"
        },
        {
            "bufferView" : 6,
            "componentType" : 5126,
            "count" : 24,
            "type" : "MAT4"
        }
    ],
    "bufferViews" : [
        {
            "buffer" : 0,
            "byteLength" : 4608,
            "byteOffset" : 0
        },
        {
            "buffer" : 0,
            "byteLength" : 4608,
            "byteOffset" : 4608
        },
        {
            "buffer" : 0,
            "byteLength" : 3072,
            "byteOffset" : 9216
        },
        {
            "buffer" : 0,
            "byteLength" : 1536,
            "byteOffset" : 12288
        },
        {
            "buffer" : 0,
            "byteLength" : 6144,
            "byteOffset" : 13824
        },
        {
            "buffer" : 0,
            "byteLength" : 1224,
            "byteOffset" : 19968
        },
        {
            "buffer" : 0,
            "byteLength" : 1536,
            "byteOffset" : 21192
        }
    ],
    "samplers" : [
        {
            "magFilter" : 9729,
            "minFilter" : 9987
        }
    ],
    "buffers" : [
        {
            "byteLength" : 22728,
            "uri" : "IKhaitteru.bin"
        }
    ]
}
